<svg id="visual" viewBox="0 0 1444 400" width="1444" height="400" xmlns="http://www.w3.org/2000/svg" xmlns:xlink="http://www.w3.org/1999/xlink" version="1.1"><path d="M0 249L24 242.7C48 236.3 96 223.7 144.2 218C192.3 212.3 240.7 213.7 288.8 215.2C337 216.7 385 218.3 433.2 230.3C481.3 242.3 529.7 264.7 577.8 280C626 295.3 674 303.7 722 303.8C770 304 818 296 866.2 274.2C914.3 252.3 962.7 216.7 1010.8 197.8C1059 179 1107 177 1155.2 201.5C1203.3 226 1251.7 277 1299.8 283.2C1348 289.3 1396 250.7 1420 231.3L1444 212L1444 451L1420 451C1396 451 1348 451 1299.8 451C1251.7 451 1203.3 451 1155.2 451C1107 451 1059 451 1010.8 451C962.7 451 914.3 451 866.2 451C818 451 770 451 722 451C674 451 626 451 577.8 451C529.7 451 481.3 451 433.2 451C385 451 337 451 288.8 451C240.7 451 192.3 451 144.2 451C96 451 48 451 24 451L0 451Z" fill="#ffffff"></path><path d="M0 255L24 252.7C48 250.3 96 245.7 144.2 244.5C192.3 243.3 240.7 245.7 288.8 255.7C337 265.7 385 283.3 433.2 293.7C481.3 304 529.7 307 577.8 315.7C626 324.3 674 338.7 722 333C770 327.3 818 301.7 866.2 280.2C914.3 258.7 962.7 241.3 1010.8 247.5C1059 253.7 1107 283.3 1155.2 290.3C1203.3 297.3 1251.7 281.7 1299.8 267.2C1348 252.7 1396 239.3 1420 232.7L1444 226L1444 451L1420 451C1396 451 1348 451 1299.8 451C1251.7 451 1203.3 451 1155.2 451C1107 451 1059 451 1010.8 451C962.7 451 914.3 451 866.2 451C818 451 770 451 722 451C674 451 626 451 577.8 451C529.7 451 481.3 451 433.2 451C385 451 337 451 288.8 451C240.7 451 192.3 451 144.2 451C96 451 48 451 24 451L0 451Z" fill="#f5f5f5"></path><path d="M0 351L24 340.8C48 330.7 96 310.3 144.2 305C192.3 299.7 240.7 309.3 288.8 319.5C337 329.7 385 340.3 433.2 343C481.3 345.7 529.7 340.3 577.8 326.3C626 312.3 674 289.7 722 279.2C770 268.7 818 270.3 866.2 286.8C914.3 303.3 962.7 334.7 1010.8 336.2C1059 337.7 1107 309.3 1155.2 297.5C1203.3 285.7 1251.7 290.3 1299.8 292.3C1348 294.3 1396 293.7 1420 293.3L1444 293L1444 451L1420 451C1396 451 1348 451 1299.8 451C1251.7 451 1203.3 451 1155.2 451C1107 451 1059 451 1010.8 451C962.7 451 914.3 451 866.2 451C818 451 770 451 722 451C674 451 626 451 577.8 451C529.7 451 481.3 451 433.2 451C385 451 337 451 288.8 451C240.7 451 192.3 451 144.2 451C96 451 48 451 24 451L0 451Z" fill="#ebebeb"></path><path d="M0 368L24 359.7C48 351.3 96 334.7 144.2 336.2C192.3 337.7 240.7 357.3 288.8 363.8C337 370.3 385 363.7 433.2 362.8C481.3 362 529.7 367 577.8 367.3C626 367.7 674 363.3 722 363.7C770 364 818 369 866.2 364.3C914.3 359.7 962.7 345.3 1010.8 342.5C1059 339.7 1107 348.3 1155.2 356C1203.3 363.7 1251.7 370.3 1299.8 370.7C1348 371 1396 365 1420 362L1444 359L1444 451L1420 451C1396 451 1348 451 1299.8 451C1251.7 451 1203.3 451 1155.2 451C1107 451 1059 451 1010.8 451C962.7 451 914.3 451 866.2 451C818 451 770 451 722 451C674 451 626 451 577.8 451C529.7 451 481.3 451 433.2 451C385 451 337 451 288.8 451C240.7 451 192.3 451 144.2 451C96 451 48 451 24 451L0 451Z" fill="#e1e1e1"></path><path d="M0 388L24 390.7C48 393.3 96 398.7 144.2 397C192.3 395.3 240.7 386.7 288.8 383.7C337 380.7 385 383.3 433.2 384C481.3 384.7 529.7 383.3 577.8 383.7C626 384 674 386 722 389.5C770 393 818 398 866.2 396.7C914.3 395.3 962.7 387.7 1010.8 386.8C1059 386 1107 392 1155.2 396.7C1203.3 401.3 1251.7 404.7 1299.8 400.2C1348 395.7 1396 383.3 1420 377.2L1444 371L1444 451L1420 451C1396 451 1348 451 1299.8 451C1251.7 451 1203.3 451 1155.2 451C1107 451 1059 451 1010.8 451C962.7 451 914.3 451 866.2 451C818 451 770 451 722 451C674 451 626 451 577.8 451C529.7 451 481.3 451 433.2 451C385 451 337 451 288.8 451C240.7 451 192.3 451 144.2 451C96 451 48 451 24 451L0 451Z" fill="#d8d8d8"></path></svg>