<svg id="visual" viewBox="0 0 4000 450" width="4000" height="450" xmlns="http://www.w3.org/2000/svg" xmlns:xlink="http://www.w3.org/1999/xlink" version="1.1"><path d="M0 199L66.7 205.3C133.3 211.7 266.7 224.3 400 230C533.3 235.7 666.7 234.3 800 232.8C933.3 231.3 1066.7 229.7 1200 217.7C1333.3 205.7 1466.7 183.3 1600 168C1733.3 152.7 1866.7 144.3 2000 144.2C2133.3 144 2266.7 152 2400 173.8C2533.3 195.7 2666.7 231.3 2800 250.2C2933.3 269 3066.7 271 3200 246.5C3333.3 222 3466.7 171 3600 164.8C3733.3 158.7 3866.7 197.3 3933.3 216.7L4000 236L4000 0L3933.3 0C3866.7 0 3733.3 0 3600 0C3466.7 0 3333.3 0 3200 0C3066.7 0 2933.3 0 2800 0C2666.7 0 2533.3 0 2400 0C2266.7 0 2133.3 0 2000 0C1866.7 0 1733.3 0 1600 0C1466.7 0 1333.3 0 1200 0C1066.7 0 933.3 0 800 0C666.7 0 533.3 0 400 0C266.7 0 133.3 0 66.7 0L0 0Z" fill="#ffffff"></path><path d="M0 193L66.7 195.3C133.3 197.7 266.7 202.3 400 203.5C533.3 204.7 666.7 202.3 800 192.3C933.3 182.3 1066.7 164.7 1200 154.3C1333.3 144 1466.7 141 1600 132.3C1733.3 123.7 1866.7 109.3 2000 115C2133.3 120.7 2266.7 146.3 2400 167.8C2533.3 189.3 2666.7 206.7 2800 200.5C2933.3 194.3 3066.7 164.7 3200 157.7C3333.3 150.7 3466.7 166.3 3600 180.8C3733.3 195.3 3866.7 208.7 3933.3 215.3L4000 222L4000 0L3933.3 0C3866.7 0 3733.3 0 3600 0C3466.7 0 3333.3 0 3200 0C3066.7 0 2933.3 0 2800 0C2666.7 0 2533.3 0 2400 0C2266.7 0 2133.3 0 2000 0C1866.7 0 1733.3 0 1600 0C1466.7 0 1333.3 0 1200 0C1066.7 0 933.3 0 800 0C666.7 0 533.3 0 400 0C266.7 0 133.3 0 66.7 0L0 0Z" fill="#f5f5f5"></path><path d="M0 97L66.7 107.2C133.3 117.3 266.7 137.7 400 143C533.3 148.3 666.7 138.7 800 128.5C933.3 118.3 1066.7 107.7 1200 105C1333.3 102.3 1466.7 107.7 1600 121.7C1733.3 135.7 1866.7 158.3 2000 168.8C2133.3 179.3 2266.7 177.7 2400 161.2C2533.3 144.7 2666.7 113.3 2800 111.8C2933.3 110.3 3066.7 138.7 3200 150.5C3333.3 162.3 3466.7 157.7 3600 155.7C3733.3 153.7 3866.7 154.3 3933.3 154.7L4000 155L4000 0L3933.3 0C3866.7 0 3733.3 0 3600 0C3466.7 0 3333.3 0 3200 0C3066.7 0 2933.3 0 2800 0C2666.7 0 2533.3 0 2400 0C2266.7 0 2133.3 0 2000 0C1866.7 0 1733.3 0 1600 0C1466.7 0 1333.3 0 1200 0C1066.7 0 933.3 0 800 0C666.7 0 533.3 0 400 0C266.7 0 133.3 0 66.7 0L0 0Z" fill="#ebebeb"></path><path d="M0 80L66.7 88.3C133.3 96.7 266.7 113.3 400 111.8C533.3 110.3 666.7 90.7 800 84.2C933.3 77.7 1066.7 84.3 1200 85.2C1333.3 86 1466.7 81 1600 80.7C1733.3 80.3 1866.7 84.7 2000 84.3C2133.3 84 2266.7 79 2400 83.7C2533.3 88.3 2666.7 102.7 2800 105.5C2933.3 108.3 3066.7 99.7 3200 92C3333.3 84.3 3466.7 77.7 3600 77.3C3733.3 77 3866.7 83 3933.3 86L4000 89L4000 0L3933.3 0C3866.7 0 3733.3 0 3600 0C3466.7 0 3333.3 0 3200 0C3066.7 0 2933.3 0 2800 0C2666.7 0 2533.3 0 2400 0C2266.7 0 2133.3 0 2000 0C1866.7 0 1733.3 0 1600 0C1466.7 0 1333.3 0 1200 0C1066.7 0 933.3 0 800 0C666.7 0 533.3 0 400 0C266.7 0 133.3 0 66.7 0L0 0Z" fill="#e1e1e1"></path><path d="M0 60L66.7 57.3C133.3 54.7 266.7 49.3 400 51C533.3 52.7 666.7 61.3 800 64.3C933.3 67.3 1066.7 64.7 1200 64C1333.3 63.3 1466.7 64.7 1600 64.3C1733.3 64 1866.7 62 2000 58.5C2133.3 55 2266.7 50 2400 51.3C2533.3 52.7 2666.7 60.3 2800 61.2C2933.3 62 3066.7 56 3200 51.3C3333.3 46.7 3466.7 43.3 3600 47.8C3733.3 52.3 3866.7 64.7 3933.3 70.8L4000 77L4000 0L3933.3 0C3866.7 0 3733.3 0 3600 0C3466.7 0 3333.3 0 3200 0C3066.7 0 2933.3 0 2800 0C2666.7 0 2533.3 0 2400 0C2266.7 0 2133.3 0 2000 0C1866.7 0 1733.3 0 1600 0C1466.7 0 1333.3 0 1200 0C1066.7 0 933.3 0 800 0C666.7 0 533.3 0 400 0C266.7 0 133.3 0 66.7 0L0 0Z" fill="#d8d8d8"></path></svg>