<svg id="visual" viewBox="0 0 4000 450" width="4000" height="450" xmlns="http://www.w3.org/2000/svg" xmlns:xlink="http://www.w3.org/1999/xlink" version="1.1"><path d="M0 249L66.7 242.7C133.3 236.3 266.7 223.7 400 218C533.3 212.3 666.7 213.7 800 215.2C933.3 216.7 1066.7 218.3 1200 230.3C1333.3 242.3 1466.7 264.7 1600 280C1733.3 295.3 1866.7 303.7 2000 303.8C2133.3 304 2266.7 296 2400 274.2C2533.3 252.3 2666.7 216.7 2800 197.8C2933.3 179 3066.7 177 3200 201.5C3333.3 226 3466.7 277 3600 283.2C3733.3 289.3 3866.7 250.7 3933.3 231.3L4000 212L4000 451L3933.3 451C3866.7 451 3733.3 451 3600 451C3466.7 451 3333.3 451 3200 451C3066.7 451 2933.3 451 2800 451C2666.7 451 2533.3 451 2400 451C2266.7 451 2133.3 451 2000 451C1866.7 451 1733.3 451 1600 451C1466.7 451 1333.3 451 1200 451C1066.7 451 933.3 451 800 451C666.7 451 533.3 451 400 451C266.7 451 133.3 451 66.7 451L0 451Z" fill="#ffffff"></path><path d="M0 255L66.7 252.7C133.3 250.3 266.7 245.7 400 244.5C533.3 243.3 666.7 245.7 800 255.7C933.3 265.7 1066.7 283.3 1200 293.7C1333.3 304 1466.7 307 1600 315.7C1733.3 324.3 1866.7 338.7 2000 333C2133.3 327.3 2266.7 301.7 2400 280.2C2533.3 258.7 2666.7 241.3 2800 247.5C2933.3 253.7 3066.7 283.3 3200 290.3C3333.3 297.3 3466.7 281.7 3600 267.2C3733.3 252.7 3866.7 239.3 3933.3 232.7L4000 226L4000 451L3933.3 451C3866.7 451 3733.3 451 3600 451C3466.7 451 3333.3 451 3200 451C3066.7 451 2933.3 451 2800 451C2666.7 451 2533.3 451 2400 451C2266.7 451 2133.3 451 2000 451C1866.7 451 1733.3 451 1600 451C1466.7 451 1333.3 451 1200 451C1066.7 451 933.3 451 800 451C666.7 451 533.3 451 400 451C266.7 451 133.3 451 66.7 451L0 451Z" fill="#e5cbef"></path><path d="M0 351L66.7 340.8C133.3 330.7 266.7 310.3 400 305C533.3 299.7 666.7 309.3 800 319.5C933.3 329.7 1066.7 340.3 1200 343C1333.3 345.7 1466.7 340.3 1600 326.3C1733.3 312.3 1866.7 289.7 2000 279.2C2133.3 268.7 2266.7 270.3 2400 286.8C2533.3 303.3 2666.7 334.7 2800 336.2C2933.3 337.7 3066.7 309.3 3200 297.5C3333.3 285.7 3466.7 290.3 3600 292.3C3733.3 294.3 3866.7 293.7 3933.3 293.3L4000 293L4000 451L3933.3 451C3866.7 451 3733.3 451 3600 451C3466.7 451 3333.3 451 3200 451C3066.7 451 2933.3 451 2800 451C2666.7 451 2533.3 451 2400 451C2266.7 451 2133.3 451 2000 451C1866.7 451 1733.3 451 1600 451C1466.7 451 1333.3 451 1200 451C1066.7 451 933.3 451 800 451C666.7 451 533.3 451 400 451C266.7 451 133.3 451 66.7 451L0 451Z" fill="#ca97de"></path><path d="M0 368L66.7 359.7C133.3 351.3 266.7 334.7 400 336.2C533.3 337.7 666.7 357.3 800 363.8C933.3 370.3 1066.7 363.7 1200 362.8C1333.3 362 1466.7 367 1600 367.3C1733.3 367.7 1866.7 363.3 2000 363.7C2133.3 364 2266.7 369 2400 364.3C2533.3 359.7 2666.7 345.3 2800 342.5C2933.3 339.7 3066.7 348.3 3200 356C3333.3 363.7 3466.7 370.3 3600 370.7C3733.3 371 3866.7 365 3933.3 362L4000 359L4000 451L3933.3 451C3866.7 451 3733.3 451 3600 451C3466.7 451 3333.3 451 3200 451C3066.7 451 2933.3 451 2800 451C2666.7 451 2533.3 451 2400 451C2266.7 451 2133.3 451 2000 451C1866.7 451 1733.3 451 1600 451C1466.7 451 1333.3 451 1200 451C1066.7 451 933.3 451 800 451C666.7 451 533.3 451 400 451C266.7 451 133.3 451 66.7 451L0 451Z" fill="#ac63cd"></path><path d="M0 388L66.7 390.7C133.3 393.3 266.7 398.7 400 397C533.3 395.3 666.7 386.7 800 383.7C933.3 380.7 1066.7 383.3 1200 384C1333.3 384.7 1466.7 383.3 1600 383.7C1733.3 384 1866.7 386 2000 389.5C2133.3 393 2266.7 398 2400 396.7C2533.3 395.3 2666.7 387.7 2800 386.8C2933.3 386 3066.7 392 3200 396.7C3333.3 401.3 3466.7 404.7 3600 400.2C3733.3 395.7 3866.7 383.3 3933.3 377.2L4000 371L4000 451L3933.3 451C3866.7 451 3733.3 451 3600 451C3466.7 451 3333.3 451 3200 451C3066.7 451 2933.3 451 2800 451C2666.7 451 2533.3 451 2400 451C2266.7 451 2133.3 451 2000 451C1866.7 451 1733.3 451 1600 451C1466.7 451 1333.3 451 1200 451C1066.7 451 933.3 451 800 451C666.7 451 533.3 451 400 451C266.7 451 133.3 451 66.7 451L0 451Z" fill="#8b26bb"></path></svg>