<svg id="visual" viewBox="0 0 1350 1350" width="1350" height="1350" xmlns="http://www.w3.org/2000/svg" xmlns:xlink="http://www.w3.org/1999/xlink" version="1.1"><g><g transform="translate(423 351)"><path d="M0 -53.8L46.6 -26.9L46.6 26.9L0 53.8L-46.6 26.9L-46.6 -26.9Z" fill="none" stroke="#411A8C" stroke-width="2"></path></g><g transform="translate(1270 252)"><path d="M0 -35L30.3 -17.5L30.3 17.5L0 35L-30.3 17.5L-30.3 -17.5Z" fill="none" stroke="#411A8C" stroke-width="2"></path></g><g transform="translate(677 953)"><path d="M0 -28L24.2 -14L24.2 14L0 28L-24.2 14L-24.2 -14Z" fill="none" stroke="#411A8C" stroke-width="2"></path></g><g transform="translate(319 1181)"><path d="M0 -48L41.6 -24L41.6 24L0 48L-41.6 24L-41.6 -24Z" fill="none" stroke="#411A8C" stroke-width="2"></path></g><g transform="translate(178 96)"><path d="M0 -34L29.4 -17L29.4 17L0 34L-29.4 17L-29.4 -17Z" fill="none" stroke="#411A8C" stroke-width="2"></path></g><g transform="translate(733 522)"><path d="M0 -44L38.1 -22L38.1 22L0 44L-38.1 22L-38.1 -22Z" fill="none" stroke="#411A8C" stroke-width="2"></path></g><g transform="translate(839 1241)"><path d="M0 -28L24.2 -14L24.2 14L0 28L-24.2 14L-24.2 -14Z" fill="none" stroke="#411A8C" stroke-width="2"></path></g><g transform="translate(315 942)"><path d="M0 -27L23.4 -13.5L23.4 13.5L0 27L-23.4 13.5L-23.4 -13.5Z" fill="none" stroke="#411A8C" stroke-width="2"></path></g><g transform="translate(1141 1263)"><path d="M0 -32L27.7 -16L27.7 16L0 32L-27.7 16L-27.7 -16Z" fill="none" stroke="#411A8C" stroke-width="2"></path></g><g transform="translate(1055 1156)"><path d="M0 -27L23.4 -13.5L23.4 13.5L0 27L-23.4 13.5L-23.4 -13.5Z" fill="none" stroke="#411A8C" stroke-width="2"></path></g><g transform="translate(523 967)"><path d="M0 -38L32.9 -19L32.9 19L0 38L-32.9 19L-32.9 -19Z" fill="none" stroke="#411A8C" stroke-width="2"></path></g><g transform="translate(111 1059)"><path d="M0 -28L24.2 -14L24.2 14L0 28L-24.2 14L-24.2 -14Z" fill="none" stroke="#411A8C" stroke-width="2"></path></g><g transform="translate(241 411)"><path d="M0 -46L39.8 -23L39.8 23L0 46L-39.8 23L-39.8 -23Z" fill="none" stroke="#411A8C" stroke-width="2"></path></g><g transform="translate(840 1088)"><path d="M0 -33L28.6 -16.5L28.6 16.5L0 33L-28.6 16.5L-28.6 -16.5Z" fill="none" stroke="#411A8C" stroke-width="2"></path></g><g transform="translate(784 139)"><path d="M0 -43L37.2 -21.5L37.2 21.5L0 43L-37.2 21.5L-37.2 -21.5Z" fill="none" stroke="#411A8C" stroke-width="2"></path></g><g transform="translate(831 631)"><path d="M0 -46L39.8 -23L39.8 23L0 46L-39.8 23L-39.8 -23Z" fill="none" stroke="#411A8C" stroke-width="2"></path></g><g transform="translate(1106 643)"><path d="M0 -42L36.4 -21L36.4 21L0 42L-36.4 21L-36.4 -21Z" fill="none" stroke="#411A8C" stroke-width="2"></path></g><g transform="translate(342 490)"><path d="M0 -35L30.3 -17.5L30.3 17.5L0 35L-30.3 17.5L-30.3 -17.5Z" fill="none" stroke="#411A8C" stroke-width="2"></path></g><g transform="translate(1131 173)"><path d="M0 -40L34.6 -20L34.6 20L0 40L-34.6 20L-34.6 -20Z" fill="none" stroke="#411A8C" stroke-width="2"></path></g><g transform="translate(361 153)"><path d="M0 -41L35.5 -20.5L35.5 20.5L0 41L-35.5 20.5L-35.5 -20.5Z" fill="none" stroke="#411A8C" stroke-width="2"></path></g><g transform="translate(18 268)"><path d="M0 -39L33.8 -19.5L33.8 19.5L0 39L-33.8 19.5L-33.8 -19.5Z" fill="none" stroke="#411A8C" stroke-width="2"></path></g><g transform="translate(789 22)"><path d="M0 -29L25.1 -14.5L25.1 14.5L0 29L-25.1 14.5L-25.1 -14.5Z" fill="none" stroke="#411A8C" stroke-width="2"></path></g><g transform="translate(947 132)"><path d="M0 -32L27.7 -16L27.7 16L0 32L-27.7 16L-27.7 -16Z" fill="none" stroke="#411A8C" stroke-width="2"></path></g><g transform="translate(873 366)"><path d="M0 -28L24.2 -14L24.2 14L0 28L-24.2 14L-24.2 -14Z" fill="none" stroke="#411A8C" stroke-width="2"></path></g><g transform="translate(886 507)"><path d="M0 -29L25.1 -14.5L25.1 14.5L0 29L-25.1 14.5L-25.1 -14.5Z" fill="none" stroke="#411A8C" stroke-width="2"></path></g><g transform="translate(90 1239)"><path d="M0 -41L35.5 -20.5L35.5 20.5L0 41L-35.5 20.5L-35.5 -20.5Z" fill="none" stroke="#411A8C" stroke-width="2"></path></g><g transform="translate(435 1085)"><path d="M0 -36L31.2 -18L31.2 18L0 36L-31.2 18L-31.2 -18Z" fill="none" stroke="#411A8C" stroke-width="2"></path></g><g transform="translate(1127 488)"><path d="M0 -35L30.3 -17.5L30.3 17.5L0 35L-30.3 17.5L-30.3 -17.5Z" fill="none" stroke="#411A8C" stroke-width="2"></path></g><g transform="translate(1184 1044)"><path d="M0 -37L32 -18.5L32 18.5L0 37L-32 18.5L-32 -18.5Z" fill="none" stroke="#411A8C" stroke-width="2"></path></g><g transform="translate(104 736)"><path d="M0 -34L29.4 -17L29.4 17L0 34L-29.4 17L-29.4 -17Z" fill="none" stroke="#411A8C" stroke-width="2"></path></g><g transform="translate(617 223)"><path d="M0 -29L25.1 -14.5L25.1 14.5L0 29L-25.1 14.5L-25.1 -14.5Z" fill="none" stroke="#411A8C" stroke-width="2"></path></g><g transform="translate(647 1329)"><path d="M0 -36L31.2 -18L31.2 18L0 36L-31.2 18L-31.2 -18Z" fill="none" stroke="#411A8C" stroke-width="2"></path></g><g transform="translate(472 1188)"><path d="M0 -37L32 -18.5L32 18.5L0 37L-32 18.5L-32 -18.5Z" fill="none" stroke="#411A8C" stroke-width="2"></path></g><g transform="translate(574 424)"><path d="M0 -40L34.6 -20L34.6 20L0 40L-34.6 20L-34.6 -20Z" fill="none" stroke="#411A8C" stroke-width="2"></path></g><g transform="translate(1262 1149)"><path d="M0 -44L38.1 -22L38.1 22L0 44L-38.1 22L-38.1 -22Z" fill="none" stroke="#411A8C" stroke-width="2"></path></g><g transform="translate(277 645)"><path d="M0 -32L27.7 -16L27.7 16L0 32L-27.7 16L-27.7 -16Z" fill="none" stroke="#411A8C" stroke-width="2"></path></g><g transform="translate(844 910)"><path d="M0 -46L39.8 -23L39.8 23L0 46L-39.8 23L-39.8 -23Z" fill="none" stroke="#411A8C" stroke-width="2"></path></g><g transform="translate(1317 702)"><path d="M0 -26L22.5 -13L22.5 13L0 26L-22.5 13L-22.5 -13Z" fill="none" stroke="#411A8C" stroke-width="2"></path></g><g transform="translate(308 1319)"><path d="M0 -36L31.2 -18L31.2 18L0 36L-31.2 18L-31.2 -18Z" fill="none" stroke="#411A8C" stroke-width="2"></path></g><g transform="translate(731 284)"><path d="M0 -26L22.5 -13L22.5 13L0 26L-22.5 13L-22.5 -13Z" fill="none" stroke="#411A8C" stroke-width="2"></path></g><g transform="translate(1011 45)"><path d="M0 -31L26.8 -15.5L26.8 15.5L0 31L-26.8 15.5L-26.8 -15.5Z" fill="none" stroke="#411A8C" stroke-width="2"></path></g><g transform="translate(641 1141)"><path d="M0 -40L34.6 -20L34.6 20L0 40L-34.6 20L-34.6 -20Z" fill="none" stroke="#411A8C" stroke-width="2"></path></g><g transform="translate(218 1070)"><path d="M0 -45L39 -22.5L39 22.5L0 45L-39 22.5L-39 -22.5Z" fill="none" stroke="#411A8C" stroke-width="2"></path></g><g transform="translate(19 995)"><path d="M0 -42L36.4 -21L36.4 21L0 42L-36.4 21L-36.4 -21Z" fill="none" stroke="#411A8C" stroke-width="2"></path></g><g transform="translate(1302 424)"><path d="M0 -38L32.9 -19L32.9 19L0 38L-32.9 19L-32.9 -19Z" fill="none" stroke="#411A8C" stroke-width="2"></path></g><g transform="translate(1346 958)"><path d="M0 -26L22.5 -13L22.5 13L0 26L-22.5 13L-22.5 -13Z" fill="none" stroke="#411A8C" stroke-width="2"></path></g><g transform="translate(597 852)"><path d="M0 -44L38.1 -22L38.1 22L0 44L-38.1 22L-38.1 -22Z" fill="none" stroke="#411A8C" stroke-width="2"></path></g><g transform="translate(102 175)"><path d="M0 -31L26.8 -15.5L26.8 15.5L0 31L-26.8 15.5L-26.8 -15.5Z" fill="none" stroke="#411A8C" stroke-width="2"></path></g><g transform="translate(14 671)"><path d="M0 -37L32 -18.5L32 18.5L0 37L-32 18.5L-32 -18.5Z" fill="none" stroke="#411A8C" stroke-width="2"></path></g><g transform="translate(130 624)"><path d="M0 -45L39 -22.5L39 22.5L0 45L-39 22.5L-39 -22.5Z" fill="none" stroke="#411A8C" stroke-width="2"></path></g><g transform="translate(1160 335)"><path d="M0 -26L22.5 -13L22.5 13L0 26L-22.5 13L-22.5 -13Z" fill="none" stroke="#411A8C" stroke-width="2"></path></g><g transform="translate(818 781)"><path d="M0 -50L43.3 -25L43.3 25L0 50L-43.3 25L-43.3 -25Z" fill="none" stroke="#411A8C" stroke-width="2"></path></g><g transform="translate(1044 760)"><path d="M0 -29L25.1 -14.5L25.1 14.5L0 29L-25.1 14.5L-25.1 -14.5Z" fill="none" stroke="#411A8C" stroke-width="2"></path></g><g transform="translate(1008 898)"><path d="M0 -26L22.5 -13L22.5 13L0 26L-22.5 13L-22.5 -13Z" fill="none" stroke="#411A8C" stroke-width="2"></path></g><g transform="translate(521 1347)"><path d="M0 -48L41.6 -24L41.6 24L0 48L-41.6 24L-41.6 -24Z" fill="none" stroke="#411A8C" stroke-width="2"></path></g><g transform="translate(87 401)"><path d="M0 -28L24.2 -14L24.2 14L0 28L-24.2 14L-24.2 -14Z" fill="none" stroke="#411A8C" stroke-width="2"></path></g><g transform="translate(1284 13)"><path d="M0 -34L29.4 -17L29.4 17L0 34L-29.4 17L-29.4 -17Z" fill="none" stroke="#411A8C" stroke-width="2"></path></g><g transform="translate(405 842)"><path d="M0 -37L32 -18.5L32 18.5L0 37L-32 18.5L-32 -18.5Z" fill="none" stroke="#411A8C" stroke-width="2"></path></g><g transform="translate(495 643)"><path d="M0 -39L33.8 -19.5L33.8 19.5L0 39L-33.8 19.5L-33.8 -19.5Z" fill="none" stroke="#411A8C" stroke-width="2"></path></g><g transform="translate(512 26)"><path d="M0 -32L27.7 -16L27.7 16L0 32L-27.7 16L-27.7 -16Z" fill="none" stroke="#411A8C" stroke-width="2"></path></g><g transform="translate(1117 14)"><path d="M0 -46L39.8 -23L39.8 23L0 46L-39.8 23L-39.8 -23Z" fill="none" stroke="#411A8C" stroke-width="2"></path></g><g transform="translate(931 705)"><path d="M0 -49L42.4 -24.5L42.4 24.5L0 49L-42.4 24.5L-42.4 -24.5Z" fill="none" stroke="#411A8C" stroke-width="2"></path></g><g transform="translate(519 177)"><path d="M0 -39L33.8 -19.5L33.8 19.5L0 39L-33.8 19.5L-33.8 -19.5Z" fill="none" stroke="#411A8C" stroke-width="2"></path></g><g transform="translate(280 785)"><path d="M0 -39L33.8 -19.5L33.8 19.5L0 39L-33.8 19.5L-33.8 -19.5Z" fill="none" stroke="#411A8C" stroke-width="2"></path></g><g transform="translate(1210 937)"><path d="M0 -45L39 -22.5L39 22.5L0 45L-39 22.5L-39 -22.5Z" fill="none" stroke="#411A8C" stroke-width="2"></path></g><g transform="translate(614 98)"><path d="M0 -27L23.4 -13.5L23.4 13.5L0 27L-23.4 13.5L-23.4 -13.5Z" fill="none" stroke="#411A8C" stroke-width="2"></path></g><g transform="translate(1276 573)"><path d="M0 -45L39 -22.5L39 22.5L0 45L-39 22.5L-39 -22.5Z" fill="none" stroke="#411A8C" stroke-width="2"></path></g><g transform="translate(25 558)"><path d="M0 -39L33.8 -19.5L33.8 19.5L0 39L-33.8 19.5L-33.8 -19.5Z" fill="none" stroke="#411A8C" stroke-width="2"></path></g><g transform="translate(26 98)"><path d="M0 -50L43.3 -25L43.3 25L0 50L-43.3 25L-43.3 -25Z" fill="none" stroke="#411A8C" stroke-width="2"></path></g><g transform="translate(191 260)"><path d="M0 -50L43.3 -25L43.3 25L0 50L-43.3 25L-43.3 -25Z" fill="none" stroke="#411A8C" stroke-width="2"></path></g><g transform="translate(109 904)"><path d="M0 -44L38.1 -22L38.1 22L0 44L-38.1 22L-38.1 -22Z" fill="none" stroke="#411A8C" stroke-width="2"></path></g><g transform="translate(159 517)"><path d="M0 -47L40.7 -23.5L40.7 23.5L0 47L-40.7 23.5L-40.7 -23.5Z" fill="none" stroke="#411A8C" stroke-width="2"></path></g><g transform="translate(390 619)"><path d="M0 -30L26 -15L26 15L0 30L-26 15L-26 -15Z" fill="none" stroke="#411A8C" stroke-width="2"></path></g><g transform="translate(637 587)"><path d="M0 -28L24.2 -14L24.2 14L0 28L-24.2 14L-24.2 -14Z" fill="none" stroke="#411A8C" stroke-width="2"></path></g><g transform="translate(1046 356)"><path d="M0 -48L41.6 -24L41.6 24L0 48L-41.6 24L-41.6 -24Z" fill="none" stroke="#411A8C" stroke-width="2"></path></g><g transform="translate(988 606)"><path d="M0 -31L26.8 -15.5L26.8 15.5L0 31L-26.8 15.5L-26.8 -15.5Z" fill="none" stroke="#411A8C" stroke-width="2"></path></g><g transform="translate(1221 799)"><path d="M0 -30L26 -15L26 15L0 30L-26 15L-26 -15Z" fill="none" stroke="#411A8C" stroke-width="2"></path></g><g transform="translate(937 271)"><path d="M0 -34L29.4 -17L29.4 17L0 34L-29.4 17L-29.4 -17Z" fill="none" stroke="#411A8C" stroke-width="2"></path></g><g transform="translate(679 742)"><path d="M0 -49L42.4 -24.5L42.4 24.5L0 49L-42.4 24.5L-42.4 -24.5Z" fill="none" stroke="#411A8C" stroke-width="2"></path></g><g transform="translate(529 318)"><path d="M0 -35L30.3 -17.5L30.3 17.5L0 35L-30.3 17.5L-30.3 -17.5Z" fill="none" stroke="#411A8C" stroke-width="2"></path></g><g transform="translate(21 1120)"><path d="M0 -50L43.3 -25L43.3 25L0 50L-43.3 25L-43.3 -25Z" fill="none" stroke="#411A8C" stroke-width="2"></path></g><g transform="translate(1343 1336)"><path d="M0 -49L42.4 -24.5L42.4 24.5L0 49L-42.4 24.5L-42.4 -24.5Z" fill="none" stroke="#411A8C" stroke-width="2"></path></g><g transform="translate(341 12)"><path d="M0 -40L34.6 -20L34.6 20L0 40L-34.6 20L-34.6 -20Z" fill="none" stroke="#411A8C" stroke-width="2"></path></g><g transform="translate(201 1228)"><path d="M0 -51L44.2 -25.5L44.2 25.5L0 51L-44.2 25.5L-44.2 -25.5Z" fill="none" stroke="#411A8C" stroke-width="2"></path></g><g transform="translate(407 726)"><path d="M0 -30L26 -15L26 15L0 30L-26 15L-26 -15Z" fill="none" stroke="#411A8C" stroke-width="2"></path></g><g transform="translate(918 1337)"><path d="M0 -41L35.5 -20.5L35.5 20.5L0 41L-35.5 20.5L-35.5 -20.5Z" fill="none" stroke="#411A8C" stroke-width="2"></path></g><g transform="translate(995 470)"><path d="M0 -27L23.4 -13.5L23.4 13.5L0 27L-23.4 13.5L-23.4 -13.5Z" fill="none" stroke="#411A8C" stroke-width="2"></path></g><g transform="translate(1289 131)"><path d="M0 -29L25.1 -14.5L25.1 14.5L0 29L-25.1 14.5L-25.1 -14.5Z" fill="none" stroke="#411A8C" stroke-width="2"></path></g><g transform="translate(304 271)"><path d="M0 -51L44.2 -25.5L44.2 25.5L0 51L-44.2 25.5L-44.2 -25.5Z" fill="none" stroke="#411A8C" stroke-width="2"></path></g><g transform="translate(769 1347)"><path d="M0 -26L22.5 -13L22.5 13L0 26L-22.5 13L-22.5 -13Z" fill="none" stroke="#411A8C" stroke-width="2"></path></g><g transform="translate(898 24)"><path d="M0 -40L34.6 -20L34.6 20L0 40L-34.6 20L-34.6 -20Z" fill="none" stroke="#411A8C" stroke-width="2"></path></g><g transform="translate(1318 848)"><path d="M0 -39L33.8 -19.5L33.8 19.5L0 39L-33.8 19.5L-33.8 -19.5Z" fill="none" stroke="#411A8C" stroke-width="2"></path></g><g transform="translate(18 808)"><path d="M0 -34L29.4 -17L29.4 17L0 34L-29.4 17L-29.4 -17Z" fill="none" stroke="#411A8C" stroke-width="2"></path></g><g transform="translate(1015 1282)"><path d="M0 -26L22.5 -13L22.5 13L0 26L-22.5 13L-22.5 -13Z" fill="none" stroke="#411A8C" stroke-width="2"></path></g><g transform="translate(973 1032)"><path d="M0 -45L39 -22.5L39 22.5L0 45L-39 22.5L-39 -22.5Z" fill="none" stroke="#411A8C" stroke-width="2"></path></g><g transform="translate(672 4)"><path d="M0 -30L26 -15L26 15L0 30L-26 15L-26 -15Z" fill="none" stroke="#411A8C" stroke-width="2"></path></g><g transform="translate(96 3)"><path d="M0 -51L44.2 -25.5L44.2 25.5L0 51L-44.2 25.5L-44.2 -25.5Z" fill="none" stroke="#411A8C" stroke-width="2"></path></g><g transform="translate(719 1052)"><path d="M0 -51L44.2 -25.5L44.2 25.5L0 51L-44.2 25.5L-44.2 -25.5Z" fill="none" stroke="#411A8C" stroke-width="2"></path></g><g transform="translate(1044 245)"><path d="M0 -40L34.6 -20L34.6 20L0 40L-34.6 20L-34.6 -20Z" fill="none" stroke="#411A8C" stroke-width="2"></path></g><g transform="translate(468 536)"><path d="M0 -30L26 -15L26 15L0 30L-26 15L-26 -15Z" fill="none" stroke="#411A8C" stroke-width="2"></path></g><g transform="translate(711 847)"><path d="M0 -28L24.2 -14L24.2 14L0 28L-24.2 14L-24.2 -14Z" fill="none" stroke="#411A8C" stroke-width="2"></path></g><g transform="translate(554 737)"><path d="M0 -38L32.9 -19L32.9 19L0 38L-32.9 19L-32.9 -19Z" fill="none" stroke="#411A8C" stroke-width="2"></path></g><g transform="translate(929 816)"><path d="M0 -28L24.2 -14L24.2 14L0 28L-24.2 14L-24.2 -14Z" fill="none" stroke="#411A8C" stroke-width="2"></path></g><g transform="translate(925 1161)"><path d="M0 -44L38.1 -22L38.1 22L0 44L-38.1 22L-38.1 -22Z" fill="none" stroke="#411A8C" stroke-width="2"></path></g><g transform="translate(1120 873)"><path d="M0 -28L24.2 -14L24.2 14L0 28L-24.2 14L-24.2 -14Z" fill="none" stroke="#411A8C" stroke-width="2"></path></g><g transform="translate(564 1247)"><path d="M0 -30L26 -15L26 15L0 30L-26 15L-26 -15Z" fill="none" stroke="#411A8C" stroke-width="2"></path></g><g transform="translate(727 1219)"><path d="M0 -26L22.5 -13L22.5 13L0 26L-22.5 13L-22.5 -13Z" fill="none" stroke="#411A8C" stroke-width="2"></path></g><g transform="translate(549 1075)"><path d="M0 -32L27.7 -16L27.7 16L0 32L-27.7 16L-27.7 -16Z" fill="none" stroke="#411A8C" stroke-width="2"></path></g><g transform="translate(692 399)"><path d="M0 -46L39.8 -23L39.8 23L0 46L-39.8 23L-39.8 -23Z" fill="none" stroke="#411A8C" stroke-width="2"></path></g><g transform="translate(207 962)"><path d="M0 -26L22.5 -13L22.5 13L0 26L-22.5 13L-22.5 -13Z" fill="none" stroke="#411A8C" stroke-width="2"></path></g><g transform="translate(1212 678)"><path d="M0 -30L26 -15L26 15L0 30L-26 15L-26 -15Z" fill="none" stroke="#411A8C" stroke-width="2"></path></g><g transform="translate(418 1303)"><path d="M0 -27L23.4 -13.5L23.4 13.5L0 27L-23.4 13.5L-23.4 -13.5Z" stroke="#411A8C" fill="none" stroke-width="2"></path></g><g transform="translate(67 1347)"><path d="M0 -35L30.3 -17.5L30.3 17.5L0 35L-30.3 17.5L-30.3 -17.5Z" stroke="#411A8C" fill="none" stroke-width="2"></path></g><g transform="translate(1251 1273)"><path d="M0 -40L34.6 -20L34.6 20L0 40L-34.6 20L-34.6 -20Z" stroke="#411A8C" fill="none" stroke-width="2"></path></g><g transform="translate(176 816)"><path d="M0 -44L38.1 -22L38.1 22L0 44L-38.1 22L-38.1 -22Z" stroke="#411A8C" fill="none" stroke-width="2"></path></g><g transform="translate(1080 982)"><path d="M0 -48L41.6 -24L41.6 24L0 48L-41.6 24L-41.6 -24Z" stroke="#411A8C" fill="none" stroke-width="2"></path></g></g></svg>