<svg id="visual" viewBox="0 0 900 600" width="900" height="600" xmlns="http://www.w3.org/2000/svg" xmlns:xlink="http://www.w3.org/1999/xlink" version="1.1"><path d="M56 0L57.3 14.3C58.7 28.7 61.3 57.3 60.5 85.8C59.7 114.3 55.3 142.7 57.5 171.2C59.7 199.7 68.3 228.3 69.3 257C70.3 285.7 63.7 314.3 63.2 343C62.7 371.7 68.3 400.3 68.7 428.8C69 457.3 64 485.7 62.7 514.2C61.3 542.7 63.7 571.3 64.8 585.7L66 600L0 600L0 585.7C0 571.3 0 542.7 0 514.2C0 485.7 0 457.3 0 428.8C0 400.3 0 371.7 0 343C0 314.3 0 285.7 0 257C0 228.3 0 199.7 0 171.2C0 142.7 0 114.3 0 85.8C0 57.3 0 28.7 0 14.3L0 0Z" fill="#cdb7ff"></path><path d="M51 0L53 14.3C55 28.7 59 57.3 61 85.8C63 114.3 63 142.7 61 171.2C59 199.7 55 228.3 52.2 257C49.3 285.7 47.7 314.3 50 343C52.3 371.7 58.7 400.3 62 428.8C65.3 457.3 65.7 485.7 65 514.2C64.3 542.7 62.7 571.3 61.8 585.7L61 600L0 600L0 585.7C0 571.3 0 542.7 0 514.2C0 485.7 0 457.3 0 428.8C0 400.3 0 371.7 0 343C0 314.3 0 285.7 0 257C0 228.3 0 199.7 0 171.2C0 142.7 0 114.3 0 85.8C0 57.3 0 28.7 0 14.3L0 0Z" fill="#c5a9ff"></path><path d="M52 0L52.2 14.3C52.3 28.7 52.7 57.3 52.7 85.8C52.7 114.3 52.3 142.7 50.3 171.2C48.3 199.7 44.7 228.3 45.3 257C46 285.7 51 314.3 51.2 343C51.3 371.7 46.7 400.3 45.5 428.8C44.3 457.3 46.7 485.7 47.8 514.2C49 542.7 49 571.3 49 585.7L49 600L0 600L0 585.7C0 571.3 0 542.7 0 514.2C0 485.7 0 457.3 0 428.8C0 400.3 0 371.7 0 343C0 314.3 0 285.7 0 257C0 228.3 0 199.7 0 171.2C0 142.7 0 114.3 0 85.8C0 57.3 0 28.7 0 14.3L0 0Z" fill="#bd9aff"></path><path d="M53 0L52.3 14.3C51.7 28.7 50.3 57.3 47.5 85.8C44.7 114.3 40.3 142.7 41 171.2C41.7 199.7 47.3 228.3 48.2 257C49 285.7 45 314.3 45 343C45 371.7 49 400.3 49 428.8C49 457.3 45 485.7 43.5 514.2C42 542.7 43 571.3 43.5 585.7L44 600L0 600L0 585.7C0 571.3 0 542.7 0 514.2C0 485.7 0 457.3 0 428.8C0 400.3 0 371.7 0 343C0 314.3 0 285.7 0 257C0 228.3 0 199.7 0 171.2C0 142.7 0 114.3 0 85.8C0 57.3 0 28.7 0 14.3L0 0Z" fill="#b68bff"></path><path d="M32 0L32.8 14.3C33.7 28.7 35.3 57.3 35.2 85.8C35 114.3 33 142.7 32.7 171.2C32.3 199.7 33.7 228.3 35.2 257C36.7 285.7 38.3 314.3 38.8 343C39.3 371.7 38.7 400.3 39.5 428.8C40.3 457.3 42.7 485.7 43.5 514.2C44.3 542.7 43.7 571.3 43.3 585.7L43 600L0 600L0 585.7C0 571.3 0 542.7 0 514.2C0 485.7 0 457.3 0 428.8C0 400.3 0 371.7 0 343C0 314.3 0 285.7 0 257C0 228.3 0 199.7 0 171.2C0 142.7 0 114.3 0 85.8C0 57.3 0 28.7 0 14.3L0 0Z" fill="#ae7cff"></path><path d="M27 0L27.2 14.3C27.3 28.7 27.7 57.3 29 85.8C30.3 114.3 32.7 142.7 32.8 171.2C33 199.7 31 228.3 29.8 257C28.7 285.7 28.3 314.3 30 343C31.7 371.7 35.3 400.3 35.2 428.8C35 457.3 31 485.7 29.3 514.2C27.7 542.7 28.3 571.3 28.7 585.7L29 600L0 600L0 585.7C0 571.3 0 542.7 0 514.2C0 485.7 0 457.3 0 428.8C0 400.3 0 371.7 0 343C0 314.3 0 285.7 0 257C0 228.3 0 199.7 0 171.2C0 142.7 0 114.3 0 85.8C0 57.3 0 28.7 0 14.3L0 0Z" fill="#a76cff"></path><path d="M33 0L32.8 14.3C32.7 28.7 32.3 57.3 32.2 85.8C32 114.3 32 142.7 32 171.2C32 199.7 32 228.3 31.3 257C30.7 285.7 29.3 314.3 29 343C28.7 371.7 29.3 400.3 29.7 428.8C30 457.3 30 485.7 28.7 514.2C27.3 542.7 24.7 571.3 23.3 585.7L22 600L0 600L0 585.7C0 571.3 0 542.7 0 514.2C0 485.7 0 457.3 0 428.8C0 400.3 0 371.7 0 343C0 314.3 0 285.7 0 257C0 228.3 0 199.7 0 171.2C0 142.7 0 114.3 0 85.8C0 57.3 0 28.7 0 14.3L0 0Z" fill="#a15bff"></path><path d="M16 0L16.2 14.3C16.3 28.7 16.7 57.3 18.3 85.8C20 114.3 23 142.7 23.5 171.2C24 199.7 22 228.3 21.7 257C21.3 285.7 22.7 314.3 23.5 343C24.3 371.7 24.7 400.3 25 428.8C25.3 457.3 25.7 485.7 24.2 514.2C22.7 542.7 19.3 571.3 17.7 585.7L16 600L0 600L0 585.7C0 571.3 0 542.7 0 514.2C0 485.7 0 457.3 0 428.8C0 400.3 0 371.7 0 343C0 314.3 0 285.7 0 257C0 228.3 0 199.7 0 171.2C0 142.7 0 114.3 0 85.8C0 57.3 0 28.7 0 14.3L0 0Z" fill="#9a48ff"></path><path d="M15 0L14.8 14.3C14.7 28.7 14.3 57.3 14.7 85.8C15 114.3 16 142.7 16.8 171.2C17.7 199.7 18.3 228.3 18.2 257C18 285.7 17 314.3 16.8 343C16.7 371.7 17.3 400.3 17.3 428.8C17.3 457.3 16.7 485.7 15.8 514.2C15 542.7 14 571.3 13.5 585.7L13 600L0 600L0 585.7C0 571.3 0 542.7 0 514.2C0 485.7 0 457.3 0 428.8C0 400.3 0 371.7 0 343C0 314.3 0 285.7 0 257C0 228.3 0 199.7 0 171.2C0 142.7 0 114.3 0 85.8C0 57.3 0 28.7 0 14.3L0 0Z" fill="#9330ff"></path><path d="M12 0L11.2 14.3C10.3 28.7 8.7 57.3 7.8 85.8C7 114.3 7 142.7 7 171.2C7 199.7 7 228.3 6.8 257C6.7 285.7 6.3 314.3 7.3 343C8.3 371.7 10.7 400.3 10.8 428.8C11 457.3 9 485.7 8.7 514.2C8.3 542.7 9.7 571.3 10.3 585.7L11 600L0 600L0 585.7C0 571.3 0 542.7 0 514.2C0 485.7 0 457.3 0 428.8C0 400.3 0 371.7 0 343C0 314.3 0 285.7 0 257C0 228.3 0 199.7 0 171.2C0 142.7 0 114.3 0 85.8C0 57.3 0 28.7 0 14.3L0 0Z" fill="#8c00ff"></path></svg>