<?xml version="1.0" encoding="utf-8"?>
<!-- Generator: Adobe Illustrator 22.1.0, SVG Export Plug-In . SVG Version: 6.00 Build 0)  -->
<svg version="1.1" xmlns="http://www.w3.org/2000/svg" xmlns:xlink="http://www.w3.org/1999/xlink" x="0px" y="0px"
	 viewBox="0 0 900 900" style="enable-background:new 0 0 900 900;" xml:space="preserve">
<style type="text/css">
	.st0{fill:url(#SVGID_1_);}
	.st1{fill:url(#SVGID_2_);}
	.st2{fill:url(#SVGID_3_);}
	.st3{fill:url(#SVGID_4_);}
	.st4{fill:url(#SVGID_5_);}
	.st5{fill:url(#SVGID_6_);}
	.st6{fill:url(#SVGID_7_);}
	.st7{fill:url(#SVGID_8_);}
	.st8{fill:url(#SVGID_9_);}
	.st9{fill:url(#SVGID_10_);}
	.st10{fill:url(#SVGID_11_);}
</style>
<g id="Layer_1">
</g>
<g id="Layer_2">
	<g>
		<linearGradient id="SVGID_1_" gradientUnits="userSpaceOnUse" x1="285.4167" y1="352.3379" x2="689.4958" y2="352.3379">
			<stop  offset="8.765244e-02" style="stop-color:#7715C2"/>
			<stop  offset="0.2614" style="stop-color:#801DCC"/>
			<stop  offset="0.5519" style="stop-color:#9934E6"/>
			<stop  offset="0.7507" style="stop-color:#AD47FB"/>
		</linearGradient>
		<path class="st0" d="M444.3,369.2v-33.8c0,0-15,3-18.2,3s-10.8,0.2-13.2-0.2s-6.5-1.8-8.2-1s-3.2,2.5,0,6.5s6.8,8.8,9.5,10.8
			s10,5.5,11.5,6.5s6.8,2.8,7.8,3.8S442.3,369.5,444.3,369.2z"/>
		<linearGradient id="SVGID_2_" gradientUnits="userSpaceOnUse" x1="285.4167" y1="355.5819" x2="689.4958" y2="355.5819">
			<stop  offset="8.765244e-02" style="stop-color:#7715C2"/>
			<stop  offset="0.2614" style="stop-color:#801DCC"/>
			<stop  offset="0.5519" style="stop-color:#9934E6"/>
			<stop  offset="0.7507" style="stop-color:#AD47FB"/>
		</linearGradient>
		<path class="st1" d="M454.1,335.5v36.2c0,0,7.5,1.5,10.2,2.5s9,3.2,11,3.8s10.2,1.5,14.2,2s9.5,1.2,9.5,1.2v-50
			c0,0-8.8-1.2-14.5-1.2s-20.8,2-23,2.5S454.1,335.5,454.1,335.5z"/>
		<linearGradient id="SVGID_3_" gradientUnits="userSpaceOnUse" x1="285.4167" y1="435.0506" x2="689.4958" y2="435.0506">
			<stop  offset="8.765244e-02" style="stop-color:#7715C2"/>
			<stop  offset="0.2614" style="stop-color:#801DCC"/>
			<stop  offset="0.5519" style="stop-color:#9934E6"/>
			<stop  offset="0.7507" style="stop-color:#AD47FB"/>
		</linearGradient>
		<path class="st2" d="M509.8,335.4v45.8h5.4c0,0-0.7,15.4-1.7,19.4s-3.6,6.9-3.6,6.9v185.2c0,0,3.4-1.6,4.6-2.3s3.2-2.6,4.1-2.9
			s0.9-0.2,0.9-0.2s5.1,20,7.6,27.5s7.1,18.1,11.6,21.1s11.5,6,13.5,6s2.8,0,2.8,0V268.8c0,0-16.2-16.7-17.2-17.2s-4.8-2.4-5.1-3
			s-3.2-4.2-3.9-4.4s-5.8-4.9-6.8-5.9s-3.1-1.9-3.9-2.6s-8.2-7.6-8.2-7.6v57.6c0,0,5.2,11.4,7.3,15s16.6,26.1,17.4,27.5
			s9,12.8,9,12.8s-6.5,7.4-7.2,7.4s-8.5-3.1-10.1-4s-9.8-5.5-10.6-6S509.8,335.4,509.8,335.4z"/>
		<linearGradient id="SVGID_4_" gradientUnits="userSpaceOnUse" x1="285.4167" y1="419.5819" x2="689.4958" y2="419.5819">
			<stop  offset="8.765244e-02" style="stop-color:#7715C2"/>
			<stop  offset="0.2614" style="stop-color:#801DCC"/>
			<stop  offset="0.5519" style="stop-color:#9934E6"/>
			<stop  offset="0.7507" style="stop-color:#AD47FB"/>
		</linearGradient>
		<path class="st3" d="M564.5,279.9v279.4c0,0,8.7-7.2,11.5-9.2s16.1-14.2,19.9-18.8c3.8-4.6,13.2-18.5,13.3-18.9
			c0.2-0.4,0.3-1.1,0.3-1.1V340.7c0,0-3.3-1-4-1.6s-10.3-4.6-12.7-5.1s-9.1-1.3-9.4-2s-3.3-17.7-3.8-19.7s-3.4-13.4-4.2-15.2
			s-4.5-8.6-4.7-8.9s0.4,0.4-0.2-0.3s-5.1-6.9-5.2-7.3S564.5,279.9,564.5,279.9z"/>
		<linearGradient id="SVGID_5_" gradientUnits="userSpaceOnUse" x1="285.4167" y1="396.4152" x2="689.4958" y2="396.4152">
			<stop  offset="8.765244e-02" style="stop-color:#7715C2"/>
			<stop  offset="0.2614" style="stop-color:#801DCC"/>
			<stop  offset="0.5519" style="stop-color:#9934E6"/>
			<stop  offset="0.7507" style="stop-color:#AD47FB"/>
		</linearGradient>
		<path class="st4" d="M619.3,444.9V348c0,0,3.9,3,5,3.8s1.9,4.1,2.6,4.4s3.5,3.4,4.6,4.9s3.4,5,4,6.1s2.5,4.1,3.4,4.9
			s2.6,4.9,3.4,5.8s1.5,2.6,2.2,3.4s3.9,3.4,4.2,4.1s1.5,2.4,2.1,2.9s2,2.2,2.9,3.8s1.9,3.1,2.5,3.8s1.4,1.8,1.4,2.5
			s0.6,1.9,0.5,2.3s-0.2,1.7-0.8,2.6s-1.5,4.1-2.1,4.9s-2,2.1-2.4,3.3s-0.7,5.9-0.8,6.6s-0.5,1.4-0.9,1.9s-0.2,1.1-0.9,1.7
			s-1.8,1.8-2.3,2.4s-4.2,3.9-4.9,4.4s-3.5,1.5-5.2,2.2s-4.2,1.4-5.1,2s-2.3,1.3-3.4,2.1s-3.2,2.5-3.8,2.8s-1.7,1.8-2.5,2.6
			s-2.8,3.4-3.1,4S619.3,444.9,619.3,444.9z"/>
		<linearGradient id="SVGID_6_" gradientUnits="userSpaceOnUse" x1="285.4167" y1="524.1652" x2="689.4958" y2="524.1652">
			<stop  offset="8.765244e-02" style="stop-color:#7715C2"/>
			<stop  offset="0.2614" style="stop-color:#801DCC"/>
			<stop  offset="0.5519" style="stop-color:#9934E6"/>
			<stop  offset="0.7507" style="stop-color:#AD47FB"/>
		</linearGradient>
		<path class="st5" d="M499.1,413.5v183.6c0,0-20.3,6.3-23.1,6.8s-9.1,1.8-9.1,1.8s0.2,0.8,1.3,0.9c1.1,0.2,6.6,0.5,8.7,0.7
			c2.1,0.2,8,0.9,9.3,1c1.3,0.1,5.4,0.7,7.1,0.7c1.7,0,5.8,0.4,5.8,0.4v31.2h-38.6c0,0-1.2,1-1.8,1s-4.4,0-4.4,0V406.7
			c0,0,7.1,0.5,8.6,0.8s12.4,2.1,13.8,2.4c1.4,0.3,7.3,1.1,8.7,1.2c1.4,0.1,5.1,1.5,6.2,1.5C492.8,412.6,499.1,413.5,499.1,413.5z"
			/>
		<linearGradient id="SVGID_7_" gradientUnits="userSpaceOnUse" x1="285.4167" y1="626.7902" x2="689.4958" y2="626.7902">
			<stop  offset="8.765244e-02" style="stop-color:#7715C2"/>
			<stop  offset="0.2614" style="stop-color:#801DCC"/>
			<stop  offset="0.5519" style="stop-color:#9934E6"/>
			<stop  offset="0.7507" style="stop-color:#AD47FB"/>
		</linearGradient>
		<path class="st6" d="M509.8,612.1v28.3c0,0,0.9,0.8,1.3,0.8s0.9,0.2,0.9,0.2h9.7c0,0,8-0.5,8.4-5.2s-1.3-10.7-2.6-12.8
			s-5.1-5.6-6.2-6.2c-1.2-0.7-4.8-2.6-6.2-3S512.3,612.8,509.8,612.1z"/>
		<linearGradient id="SVGID_8_" gradientUnits="userSpaceOnUse" x1="285.4167" y1="627.8319" x2="689.4958" y2="627.8319">
			<stop  offset="8.765244e-02" style="stop-color:#7715C2"/>
			<stop  offset="0.2614" style="stop-color:#801DCC"/>
			<stop  offset="0.5519" style="stop-color:#9934E6"/>
			<stop  offset="0.7507" style="stop-color:#AD47FB"/>
		</linearGradient>
		<path class="st7" d="M564.5,613.7V642h9c0,0,7.3-0.2,9.3-2.2s3.3-5.1,3.4-5.9s-0.2-4-0.4-4.8s-1.5-3.8-1.8-4.7
			c-0.3-0.9-2.3-3.6-3.8-4.5c-1.4-0.9-6-2.9-7.5-3.4S565.6,614.1,564.5,613.7z"/>
		<linearGradient id="SVGID_9_" gradientUnits="userSpaceOnUse" x1="285.4167" y1="523.0312" x2="689.4958" y2="523.0312">
			<stop  offset="8.765244e-02" style="stop-color:#7715C2"/>
			<stop  offset="0.2614" style="stop-color:#801DCC"/>
			<stop  offset="0.5519" style="stop-color:#9934E6"/>
			<stop  offset="0.7507" style="stop-color:#AD47FB"/>
		</linearGradient>
		<path class="st8" d="M399.5,405.3c0,0,11.2-2.3,25.9-2.3c14.7,0,19.1,2.5,19.1,2.5V642c0,0-1,0.2-1.5,0s-1.8-0.4-2.3-0.4
			s-1.4,0.5-1.8,0.5c-0.3,0-5.6,0.4-6,0s-1.4-0.8-1.9-0.5c-0.5,0.3-2.3,0.7-2.3,0.7h-10.5c0,0-1.2,0.6-2.8,0.7s-3.5,0-4.2-0.3
			c-0.8-0.3-1.9-0.4-3-0.5c-1.1-0.1-4.2-0.3-5.2-0.6s-2.8-0.9-2.9-1.2c-0.2-0.2-0.7-2.6-0.7-2.6V405.3z"/>
		<linearGradient id="SVGID_10_" gradientUnits="userSpaceOnUse" x1="285.4167" y1="523.3334" x2="689.4958" y2="523.3334">
			<stop  offset="8.765244e-02" style="stop-color:#7715C2"/>
			<stop  offset="0.2614" style="stop-color:#801DCC"/>
			<stop  offset="0.5519" style="stop-color:#9934E6"/>
			<stop  offset="0.7507" style="stop-color:#AD47FB"/>
		</linearGradient>
		<path class="st9" d="M389.1,408.2v230.3c0,0-5.1-2-8.2-2.4s-9.4-2.1-11.6-2.8s-6.5-3-6.5-3s-0.5-0.3-1.6,0.2s-7.4,4.9-9.6,5.5
			s-3.2,0.7-4.4,1.3s-3.2,1.1-3.2,1.1V435.3c0,0,6.8-5.6,8.8-7.2s5.2-3.7,6.9-5.1s7.9-5.2,9.4-6.2s9.5-4.4,11.1-5.4
			S389.1,408.2,389.1,408.2z"/>
		<linearGradient id="SVGID_11_" gradientUnits="userSpaceOnUse" x1="285.4167" y1="543.9564" x2="689.4958" y2="543.9564">
			<stop  offset="8.765244e-02" style="stop-color:#7715C2"/>
			<stop  offset="0.2614" style="stop-color:#801DCC"/>
			<stop  offset="0.5519" style="stop-color:#9934E6"/>
			<stop  offset="0.7507" style="stop-color:#AD47FB"/>
		</linearGradient>
		<path class="st10" d="M333.6,445.7c0,0-12.5,9.9-21.1,29.6s-13.8,42.9-14.1,48s0.6,28.9,3.4,40.2s6.5,21.8,6.5,21.8
			s-5.8,1.4-10.5,4.3c-4.7,2.9-9.3,9.4-9.3,9.4v18.1c0,0,1.1,3.1,2.7,5.1c1.6,2,6,7.2,6.5,8s5.8,6.5,12.5,8.9
			c6.8,2.4,10.8,3.1,10.8,3.1h9l3.8-0.8V445.7z"/>
	</g>
</g>
</svg>
