<svg id="visual" viewBox="0 0 1444 450" width="1444" height="450" xmlns="http://www.w3.org/2000/svg" xmlns:xlink="http://www.w3.org/1999/xlink" version="1.1"><path d="M0 182L24 165.5C48 149 96 116 144.2 116.2C192.3 116.3 240.7 149.7 288.8 166.3C337 183 385 183 433.2 168.2C481.3 153.3 529.7 123.7 577.8 112C626 100.3 674 106.7 722 120.5C770 134.3 818 155.7 866.2 160.2C914.3 164.7 962.7 152.3 1010.8 154.8C1059 157.3 1107 174.7 1155.2 182C1203.3 189.3 1251.7 186.7 1299.8 185C1348 183.3 1396 182.7 1420 182.3L1444 182L1444 0L1420 0C1396 0 1348 0 1299.8 0C1251.7 0 1203.3 0 1155.2 0C1107 0 1059 0 1010.8 0C962.7 0 914.3 0 866.2 0C818 0 770 0 722 0C674 0 626 0 577.8 0C529.7 0 481.3 0 433.2 0C385 0 337 0 288.8 0C240.7 0 192.3 0 144.2 0C96 0 48 0 24 0L0 0Z" fill="#ffffff"></path><path d="M0 153L24 145.2C48 137.3 96 121.7 144.2 116.5C192.3 111.3 240.7 116.7 288.8 127C337 137.3 385 152.7 433.2 152C481.3 151.3 529.7 134.7 577.8 134.2C626 133.7 674 149.3 722 153.8C770 158.3 818 151.7 866.2 146.5C914.3 141.3 962.7 137.7 1010.8 135.7C1059 133.7 1107 133.3 1155.2 131.5C1203.3 129.7 1251.7 126.3 1299.8 124.5C1348 122.7 1396 122.3 1420 122.2L1444 122L1444 0L1420 0C1396 0 1348 0 1299.8 0C1251.7 0 1203.3 0 1155.2 0C1107 0 1059 0 1010.8 0C962.7 0 914.3 0 866.2 0C818 0 770 0 722 0C674 0 626 0 577.8 0C529.7 0 481.3 0 433.2 0C385 0 337 0 288.8 0C240.7 0 192.3 0 144.2 0C96 0 48 0 24 0L0 0Z" fill="#d2c3e3"></path><path d="M0 63L24 71.3C48 79.7 96 96.3 144.2 98.7C192.3 101 240.7 89 288.8 84.3C337 79.7 385 82.3 433.2 80C481.3 77.7 529.7 70.3 577.8 68.3C626 66.3 674 69.7 722 80.8C770 92 818 111 866.2 118.3C914.3 125.7 962.7 121.3 1010.8 119C1059 116.7 1107 116.3 1155.2 118.8C1203.3 121.3 1251.7 126.7 1299.8 124.5C1348 122.3 1396 112.7 1420 107.8L1444 103L1444 0L1420 0C1396 0 1348 0 1299.8 0C1251.7 0 1203.3 0 1155.2 0C1107 0 1059 0 1010.8 0C962.7 0 914.3 0 866.2 0C818 0 770 0 722 0C674 0 626 0 577.8 0C529.7 0 481.3 0 433.2 0C385 0 337 0 288.8 0C240.7 0 192.3 0 144.2 0C96 0 48 0 24 0L0 0Z" fill="#a489c6"></path><path d="M0 69L24 73.3C48 77.7 96 86.3 144.2 88.3C192.3 90.3 240.7 85.7 288.8 82.8C337 80 385 79 433.2 74.3C481.3 69.7 529.7 61.3 577.8 56.3C626 51.3 674 49.7 722 55.3C770 61 818 74 866.2 73.5C914.3 73 962.7 59 1010.8 58.8C1059 58.7 1107 72.3 1155.2 81C1203.3 89.7 1251.7 93.3 1299.8 88.7C1348 84 1396 71 1420 64.5L1444 58L1444 0L1420 0C1396 0 1348 0 1299.8 0C1251.7 0 1203.3 0 1155.2 0C1107 0 1059 0 1010.8 0C962.7 0 914.3 0 866.2 0C818 0 770 0 722 0C674 0 626 0 577.8 0C529.7 0 481.3 0 433.2 0C385 0 337 0 288.8 0C240.7 0 192.3 0 144.2 0C96 0 48 0 24 0L0 0Z" fill="#7552a9"></path><path d="M0 37L24 39.8C48 42.7 96 48.3 144.2 48.8C192.3 49.3 240.7 44.7 288.8 41.3C337 38 385 36 433.2 39C481.3 42 529.7 50 577.8 54C626 58 674 58 722 56.5C770 55 818 52 866.2 49.7C914.3 47.3 962.7 45.7 1010.8 44.3C1059 43 1107 42 1155.2 39.7C1203.3 37.3 1251.7 33.7 1299.8 33C1348 32.3 1396 34.7 1420 35.8L1444 37L1444 0L1420 0C1396 0 1348 0 1299.8 0C1251.7 0 1203.3 0 1155.2 0C1107 0 1059 0 1010.8 0C962.7 0 914.3 0 866.2 0C818 0 770 0 722 0C674 0 626 0 577.8 0C529.7 0 481.3 0 433.2 0C385 0 337 0 288.8 0C240.7 0 192.3 0 144.2 0C96 0 48 0 24 0L0 0Z" fill="#411a8c"></path></svg>